<?xml version="1.0" encoding="UTF-8" standalone="no"?>
<svg xmlns="http://www.w3.org/2000/svg" viewBox="0 0 900 420" font-family="PT Sans, DejaVu Sans, Arial, sans-serif">
  <defs>
    <style><![CDATA[
      .hdr        { fill:#1f3a5f; font-weight:700; font-size:15px; }
      .stage-box  { fill:#1f3a5f; stroke:#102a4a; stroke-width:1; }
      .stage-text { fill:#ffffff; font-weight:700; font-size:13.5px; }
      .ref        { fill:#2e5d8c; stroke:#1f3a5f; stroke-width:1; }
      .face       { fill:#c8941c; stroke:#7a5a10; stroke-width:1; }
      .face-lt    { fill:#fbe8b8; stroke:#c8941c; stroke-width:1; }
      .note       { fill:#5a3520; font-size:11.5px; font-style:italic; }
    ]]></style>
  </defs>

  <!-- =================== SIDE LABELS =================== -->
  <text class="hdr" x="200" y="32" text-anchor="middle">Эталон</text>
  <text class="hdr" x="700" y="32" text-anchor="middle">Face2</text>

  <!-- =================== STAGE 1: ОСВЕДОМЛЁННОСТЬ (single, center y=80) =================== -->
  <rect class="stage-box" x="350" y="58" width="200" height="44" rx="3"/>
  <text class="stage-text" x="450" y="85" text-anchor="middle">Осведомлённость</text>
  <rect class="ref"  x="158" y="66" width="192" height="28"/>
  <rect class="face" x="550" y="66" width="48"  height="28"/>

  <!-- =================== STAGE 2: ИНТЕРЕС (single, center y=130) =================== -->
  <rect class="stage-box" x="350" y="108" width="200" height="44" rx="3"/>
  <text class="stage-text" x="450" y="135" text-anchor="middle">Интерес</text>
  <rect class="ref"  x="182" y="116" width="168" height="28"/>
  <rect class="face" x="550" y="116" width="36"  height="28"/>

  <!-- =================== STAGE 3: ДОВЕРИЕ (dual, center y=200) =================== -->
  <rect class="stage-box" x="350" y="170" width="200" height="60" rx="3"/>
  <text class="stage-text" x="450" y="205" text-anchor="middle">Доверие</text>
  <rect class="ref"     x="62"  y="186" width="288" height="28"/>
  <rect class="face"    x="550" y="182" width="288" height="18"/>
  <rect class="face-lt" x="550" y="202" width="72"  height="18"/>
  <text class="note"    x="628" y="215">охват</text>

  <!-- =================== STAGE 4: ПРОБНОЕ ИСПОЛЬЗОВАНИЕ (dual, center y=270) =================== -->
  <rect class="stage-box" x="350" y="240" width="200" height="60" rx="3"/>
  <text class="stage-text" x="450" y="275" text-anchor="middle">Пробное использование</text>
  <rect class="ref"     x="158" y="256" width="192" height="28"/>
  <rect class="face"    x="550" y="252" width="192" height="18"/>
  <rect class="face-lt" x="550" y="272" width="18"  height="18"/>
  <text class="note"    x="574" y="285">вне РТ</text>

  <!-- =================== STAGE 5: ПРИНЯТИЕ (single, center y=330) =================== -->
  <rect class="stage-box" x="350" y="308" width="200" height="44" rx="3"/>
  <text class="stage-text" x="450" y="335" text-anchor="middle">Принятие</text>
  <rect class="ref"  x="182" y="316" width="168" height="28"/>
  <rect class="face" x="550" y="316" width="96"  height="28"/>

  <!-- =================== STAGE 6: ЛОЯЛЬНОСТЬ (single, center y=380) =================== -->
  <rect class="stage-box" x="350" y="358" width="200" height="44" rx="3"/>
  <text class="stage-text" x="450" y="385" text-anchor="middle">Лояльность</text>
  <rect class="ref"  x="230" y="366" width="120" height="28"/>
  <rect class="face" x="550" y="366" width="24"  height="28"/>
</svg>
